<?xml version="1.0" encoding="UTF-8"?>
<svg version="1.1" xmlns="http://www.w3.org/2000/svg" width="512" height="512">
<path d="M0 0 C1.36344334 -0.00346793 2.72688387 -0.00824002 4.09031868 -0.01418173 C7.79006702 -0.02656582 11.48957963 -0.02057973 15.18932819 -0.01122308 C19.19758415 -0.00438055 23.20580211 -0.01493936 27.21405029 -0.02316284 C35.04770911 -0.03644734 42.88128131 -0.03364613 50.71494341 -0.02492492 C57.08603147 -0.01812787 63.45709539 -0.01724036 69.82818604 -0.02049637 C71.19244506 -0.02118592 71.19244506 -0.02118592 72.58426487 -0.0218894 C74.4323659 -0.02284865 76.28046692 -0.02382129 78.12856793 -0.02480717 C95.42601653 -0.03334559 112.7234173 -0.0235513 130.02085805 -0.00740607 C144.83733425 0.0059957 159.65373992 0.00366717 174.47021484 -0.01016235 C191.70912015 -0.02624559 208.94798361 -0.03252176 226.18689537 -0.02332556 C228.02789687 -0.02236999 229.86889839 -0.02142688 231.7098999 -0.02049637 C232.61552079 -0.02003354 233.52114168 -0.01957072 234.45420563 -0.01909386 C240.81178621 -0.0165122 247.16934007 -0.02085714 253.5269165 -0.02793503 C261.2830619 -0.03638078 269.0391163 -0.03400559 276.79525137 -0.0180928 C280.74653469 -0.01025124 284.69766674 -0.00704747 288.64894867 -0.01704025 C292.27606908 -0.02607396 295.90290005 -0.02091411 299.52999473 -0.0051076 C301.44187262 -0.00024472 303.35377112 -0.00987804 305.26562691 -0.02027929 C333.07795717 0.16566716 357.15248179 12.22569324 377.33154297 30.88485718 C397.06215816 51.089766 407.30279211 77.52603036 407.1499939 105.61190796 C407.15346183 106.9753513 407.15823392 108.33879183 407.16417563 109.70222664 C407.17655971 113.40197498 407.17057363 117.10148759 407.16121697 120.80123615 C407.15437445 124.80949211 407.16493326 128.81771007 407.17315674 132.82595825 C407.18644124 140.65961707 407.18364002 148.49318927 407.17491882 156.32685137 C407.16812176 162.69793943 407.16723426 169.06900334 407.17049026 175.44009399 C407.17094996 176.34960001 407.17140966 177.25910603 407.17188329 178.19617283 C407.17284255 180.04427386 407.17381519 181.89237488 407.17480107 183.74047589 C407.18333948 201.03792449 407.17354519 218.33532526 407.15739997 235.63276601 C407.1439982 250.44924221 407.14632673 265.26564787 407.16015625 280.0821228 C407.17623949 297.32102811 407.18251565 314.55989157 407.17331946 331.79880333 C407.17236389 333.63980483 407.17142078 335.48080634 407.17049026 337.32180786 C407.17002744 338.22742875 407.16956461 339.13304964 407.16908776 340.06611359 C407.16650609 346.42369417 407.17085104 352.78124803 407.17792892 359.13882446 C407.18637468 366.89496985 407.18399949 374.65102425 407.16808669 382.40715933 C407.16024514 386.35844265 407.15704137 390.3095747 407.16703415 394.26085663 C407.17606785 397.88797704 407.170908 401.514808 407.15510149 405.14190269 C407.15023862 407.05378058 407.15987194 408.96567908 407.17027318 410.87753487 C406.98432674 438.68986513 394.92430066 462.76438975 376.26513672 482.94345093 C356.0602279 502.67406612 329.62396354 512.91470007 301.53808594 512.76190186 C300.17464259 512.76536978 298.81120207 512.77014188 297.44776726 512.77608359 C293.74801892 512.78846767 290.04850631 512.78248158 286.34875774 512.77312493 C282.34050178 512.76628241 278.33228382 512.77684121 274.32403564 512.7850647 C266.49037683 512.79834919 258.65680463 512.79554798 250.82314253 512.78682677 C244.45205447 512.78002972 238.08099055 512.77914221 231.7098999 512.78239822 C230.34564088 512.78308777 230.34564088 512.78308777 228.95382106 512.78379125 C227.10572004 512.7847505 225.25761902 512.78572315 223.409518 512.78670903 C206.11206941 512.79524744 188.81466864 512.78545315 171.51722789 512.76930793 C156.70075169 512.75590616 141.88434602 512.75823469 127.06787109 512.77206421 C109.82896579 512.78814745 92.59010233 512.79442361 75.35119057 512.78522742 C73.51018906 512.78427185 71.66918755 512.78332874 69.82818604 512.78239822 C68.92256514 512.7819354 68.01694425 512.78147257 67.08388031 512.78099572 C60.72629973 512.77841405 54.36874587 512.782759 48.01116943 512.78983688 C40.25502404 512.79828264 32.49896964 512.79590745 24.74283457 512.77999465 C20.79155125 512.7721531 16.8404192 512.76894933 12.88913727 512.77894211 C9.26201686 512.78797581 5.63518589 512.78281596 2.00809121 512.76700945 C0.09621331 512.76214657 -1.81568518 512.7717799 -3.72754097 512.78218114 C-31.53987123 512.5962347 -55.61439585 500.53620862 -75.79345703 481.87704468 C-95.52407222 461.67213585 -105.76470617 435.2358715 -105.61190796 407.1499939 C-105.61537589 405.78655055 -105.62014798 404.42311002 -105.62608969 403.05967522 C-105.63847378 399.35992687 -105.63248769 395.66041427 -105.62313104 391.9606657 C-105.61628851 387.95240974 -105.62684732 383.94419178 -105.6350708 379.9359436 C-105.6483553 372.10228479 -105.64555409 364.26871259 -105.63683288 356.43505049 C-105.63003583 350.06396243 -105.62914832 343.69289851 -105.63240433 337.32180786 C-105.63286403 336.41230184 -105.63332373 335.50279583 -105.63379735 334.56572902 C-105.63475661 332.717628 -105.63572925 330.86952698 -105.63671513 329.02142596 C-105.64525354 311.72397736 -105.63545925 294.4265766 -105.61931403 277.12913585 C-105.60591226 262.31265965 -105.60824079 247.49625398 -105.62207031 232.67977905 C-105.63815355 215.44087375 -105.64442972 198.20201028 -105.63523352 180.96309853 C-105.63427795 179.12209702 -105.63333484 177.28109551 -105.63240433 175.44009399 C-105.6319415 174.5344731 -105.63147867 173.62885221 -105.63100182 172.69578826 C-105.62842016 166.33820769 -105.6327651 159.98065383 -105.63984299 153.62307739 C-105.64828874 145.866932 -105.64591355 138.1108776 -105.63000076 130.35474253 C-105.6221592 126.40345921 -105.61895543 122.45232716 -105.62894821 118.50104523 C-105.63798192 114.87392481 -105.63282207 111.24709385 -105.61701556 107.61999917 C-105.61215268 105.70812127 -105.621786 103.79622278 -105.63218725 101.88436699 C-105.4462408 74.07203673 -93.38621472 49.99751211 -74.72705078 29.81845093 C-54.52214196 10.08783574 -28.0858776 -0.15279822 0 0 Z " fill="#DD86F2" transform="translate(105.23095703125,-0.380950927734375)"/>
<path d="M0 0 C21.25427018 -0.06787166 42.50845183 -0.12307157 63.76280308 -0.15543652 C73.63284259 -0.1708674 83.50280971 -0.19188419 93.37280273 -0.22631836 C101.98128067 -0.25633692 110.58970614 -0.27560242 119.19823498 -0.28226548 C123.75113008 -0.28615675 128.30387514 -0.29522186 132.85672188 -0.31719017 C137.15358526 -0.33775274 141.45023869 -0.34379445 145.74714661 -0.33932304 C147.31310103 -0.3401395 148.87906345 -0.34598627 150.4449749 -0.35761642 C179.98824535 -0.56602891 204.89660676 10.4698992 226.5625 30.50390625 C246.29311519 50.70881507 256.53374914 77.14507943 256.38095093 105.23095703 C256.38441886 106.59440038 256.38919095 107.9578409 256.39513266 109.32127571 C256.40751675 113.02102405 256.40153066 116.72053666 256.39217401 120.42028522 C256.38533148 124.42854118 256.39589029 128.43675914 256.40411377 132.44500732 C256.41739827 140.27866614 256.41459706 148.11223834 256.40587585 155.94590044 C256.39907879 162.3169885 256.39819129 168.68805242 256.4014473 175.05914307 C256.401907 175.96864908 256.40236669 176.8781551 256.40284032 177.81522191 C256.40379958 179.66332293 256.40477222 181.51142395 256.4057581 183.35952497 C256.41429651 200.65697356 256.40450222 217.95437433 256.388357 235.25181508 C256.37495523 250.06829128 256.37728376 264.88469695 256.39111328 279.70117188 C256.40719652 296.94007718 256.41347268 314.17894064 256.40427649 331.4178524 C256.40332092 333.25885391 256.40237781 335.09985542 256.4014473 336.94085693 C256.40098447 337.84647782 256.40052164 338.75209872 256.40004479 339.68516266 C256.39746312 346.04274324 256.40180807 352.4002971 256.40888596 358.75787354 C256.41733171 366.51401893 256.41495652 374.27007333 256.39904372 382.0262084 C256.39120217 385.97749172 256.3879984 389.92862377 256.39799118 393.8799057 C256.40702489 397.50702611 256.40186504 401.13385708 256.38605852 404.76095176 C256.38119565 406.67282966 256.39082897 408.58472815 256.40123022 410.49658394 C256.21528377 438.3089142 244.15525769 462.38343882 225.49609375 482.5625 C204.32754834 503.2341312 177.34395013 512.55739732 148.15063477 512.34057617 C146.52282731 512.33972747 144.89501871 512.34020978 143.26721191 512.34190369 C138.8983011 512.34275558 134.5296433 512.32526232 130.16079068 512.30418181 C125.57644044 512.28527878 120.99208279 512.28365393 116.40769958 512.28010559 C107.7489399 512.2708248 99.09029543 512.2462654 90.43158621 512.21605712 C80.56445328 512.18238878 70.69731451 512.16599601 60.83013833 512.15097082 C40.55334719 512.11971175 20.27671376 512.06475001 0 512 C0 488.57 0 465.14 0 441 C6.6 440.67 13.2 440.34 20 440 C29.70017543 437.03889382 34.45455531 433.38280927 39.66796875 424.73046875 C42.2191208 419.50098112 43.25584722 414.07566208 43.94555664 408.33374023 C44.1023439 407.05228622 44.25913116 405.77083221 44.42066956 404.45054626 C44.58391111 403.0699048 44.74707138 401.68925373 44.91015625 400.30859375 C45.08373294 398.87559169 45.25784993 397.44265498 45.43247986 396.00978088 C45.8890575 392.25294758 46.33911556 388.49536335 46.78753662 384.73754883 C47.5068667 378.72040462 48.23697087 372.70455476 48.96554375 366.68852425 C49.2181348 364.59604963 49.4684427 362.50331256 49.71827698 360.4105072 C49.87191208 359.13220535 50.02554718 357.8539035 50.18383789 356.53686523 C50.31770401 355.41658432 50.45157013 354.29630341 50.5894928 353.14207458 C50.98955435 350.07995233 51.48691225 347.04486522 52 344 C53.3894838 326.5806645 50.19051619 312.25084125 39.25 298.3125 C31.27891507 289.55872456 20.42425831 284.59391372 9 282 C9 281.34 9 280.68 9 280 C10.25103516 279.58041016 10.25103516 279.58041016 11.52734375 279.15234375 C24.08562033 274.67854762 33.42868575 268.01421605 39.75 256.125 C45.01361166 244.83616085 46.15813883 231.98166303 41.9375 220.125 C37.03179133 208.8625984 29.04076845 200.41101118 17.9765625 195.1015625 C12.14082155 192.94187884 6.12471499 192.05790532 0 191 C0 181.1 0 171.2 0 161 C21.84718985 162.75415393 40.23125755 168.05700002 57 183 C57.75925781 183.66515625 58.51851563 184.3303125 59.30078125 185.015625 C75.06890739 199.72164938 83.84966162 221.24948435 85.15625 242.546875 C85.66003538 258.08025759 81.99615897 273.54687465 74.25 287.05078125 C72.25859949 291.74924182 73.51829459 294.75391176 75.3046875 299.375 C75.82289063 300.57125 76.34109375 301.7675 76.875 303 C79.90309238 310.20461549 81.64546692 317.28866695 83 325 C96.79591111 310.79058747 106.05055132 293.11037128 111 274 C111.2990625 272.94554687 111.598125 271.89109375 111.90625 270.8046875 C119.22174747 241.06854501 112.34359055 210.72888107 97.109375 184.79345703 C80.68637543 158.24342296 54.10104324 141.25583917 24.12109375 134.0703125 C15.9486276 132.31008902 8.49528625 131.65348356 0 131 C0 121.1 0 111.2 0 101 C21.98745337 101.92384258 41.85613219 105.82365529 62 115 C62.97324219 115.43957031 63.94648438 115.87914063 64.94921875 116.33203125 C78.07627079 122.56094614 89.24226855 131.35853366 100 141 C100.79019531 141.70511719 101.58039063 142.41023437 102.39453125 143.13671875 C109.58776922 149.94113305 115.26464862 157.9730449 121 166 C121.99193359 167.35544922 121.99193359 167.35544922 123.00390625 168.73828125 C142.89555878 197.67578969 149.03904893 236.77239243 143.0390625 270.8828125 C136.72507829 303.48205108 120.6992189 334.38467547 95 356 C93.74631372 356.81359362 92.47264128 357.59725984 91.18041992 358.34814453 C85.51173846 361.69113512 80.31827081 364.77241067 78.31982422 371.35180664 C77.26341925 376.25601187 76.89500693 381.19128435 76.5625 386.1875 C76.39625185 387.92053559 76.22376749 389.65298474 76.04492188 391.38476562 C75.62448461 395.58654662 75.28889671 399.78721555 75 404 C108.27180724 386.27012539 134.26232881 362.98182561 153 330 C153.37253906 329.34837891 153.74507812 328.69675781 154.12890625 328.02539062 C168.21883243 302.93908293 174.44780577 274.01133764 174.375 245.4375 C174.37512085 244.7007605 174.3752417 243.964021 174.37536621 243.20495605 C174.34577977 230.46283343 173.12334283 218.38907692 170 206 C169.68804687 204.71867188 169.37609375 203.43734375 169.0546875 202.1171875 C168.14460701 198.69864987 167.11501742 195.35691413 166 192 C165.61585938 190.81277344 165.23171875 189.62554687 164.8359375 188.40234375 C154.00710883 156.56443809 133.44159924 128.58864108 107 108 C105.5459375 106.84371094 105.5459375 106.84371094 104.0625 105.6640625 C87.08073838 92.80287539 67.48940063 83.63552582 47 78 C46.24251465 77.79052734 45.4850293 77.58105469 44.70458984 77.36523438 C29.91491017 73.37802765 15.29577383 72.09255527 0 71 C0 47.57 0 24.14 0 0 Z " fill="#CD67E5" transform="translate(256,0)"/>
<path d="M0 0 C27.52467212 -1.05884486 54.66989431 4.87311323 79.34716797 17.12109375 C80.03858887 17.45866699 80.73000977 17.79624023 81.44238281 18.14404297 C105.35936415 29.92195693 126.00108586 47.05712716 142.34716797 68.12109375 C143.11673828 69.08917969 143.88630859 70.05726563 144.67919922 71.0546875 C160.95177874 92.19113706 171.46426082 117.99684096 176.34716797 144.12109375 C176.52449463 145.04857422 176.70182129 145.97605469 176.88452148 146.93164062 C178.44174777 155.8855185 178.70553247 164.69068263 178.65966797 173.74609375 C178.65693375 174.86843918 178.65693375 174.86843918 178.65414429 176.01345825 C178.60663971 187.61246677 178.01000417 198.80017698 175.34716797 210.12109375 C175.17024414 210.89904297 174.99332031 211.67699219 174.81103516 212.47851562 C168.36704635 240.28004245 156.30581937 266.58781068 137.34716797 288.12109375 C136.60595703 288.971875 135.86474609 289.82265625 135.10107422 290.69921875 C132.88281824 293.20580956 130.62609913 295.66963787 128.34716797 298.12109375 C127.69748047 298.83652344 127.04779297 299.55195313 126.37841797 300.2890625 C115.18416883 312.1076063 101.44362853 321.15708413 87.34716797 329.12109375 C86.71584961 329.49476074 86.08453125 329.86842773 85.43408203 330.25341797 C80.56368485 333.12109375 80.56368485 333.12109375 78.34716797 333.12109375 C78.53183476 328.61904481 78.81181995 324.13341114 79.1640625 319.64208984 C79.28934521 317.91719754 79.39349231 316.19067541 79.47949219 314.46337891 C80.37702716 297.57340265 80.37702716 297.57340265 85.08544922 292.87890625 C88.28075123 290.26610635 91.81515272 288.24352481 95.34716797 286.12109375 C97.1798545 284.6069155 98.97543491 283.04616912 100.72216797 281.43359375 C101.81658203 280.43779297 101.81658203 280.43779297 102.93310547 279.421875 C130.72285974 252.93617069 146.56952633 216.50355615 147.70092773 178.07617188 C148.022587 142.78978075 136.30310399 108.94002094 113.34716797 82.12109375 C112.64978516 81.30125 111.95240234 80.48140625 111.23388672 79.63671875 C102.94942413 70.16035301 93.87094559 62.02220026 83.34716797 55.12109375 C82.51958984 54.54746094 81.69201172 53.97382812 80.83935547 53.3828125 C56.58779282 37.05825317 24.39348513 29.35605995 -4.65283203 31.12109375 C-5.33039551 31.15686523 -6.00795898 31.19263672 -6.70605469 31.22949219 C-45.11713195 33.4541033 -79.98914602 51.83228332 -105.81591797 80.02246094 C-126.7625241 103.95348516 -139.44283283 135.34082068 -140.65283203 167.12109375 C-140.68538086 167.88631348 -140.71792969 168.6515332 -140.75146484 169.43994141 C-142.1551246 206.83542229 -129.15709321 244.23608254 -103.87402344 272.08007812 C-101.90992969 274.18350118 -99.91621814 276.25232886 -97.90283203 278.30859375 C-97.22373779 279.00791016 -96.54464355 279.70722656 -95.8449707 280.42773438 C-92.64412786 283.60627301 -89.75755874 286.27259307 -85.65283203 288.19921875 C-81.40829169 290.24421193 -78.07467833 291.92641624 -75.65283203 296.12109375 C-72.78150122 306.37864659 -69.22920865 322.89703411 -72.65283203 333.12109375 C-87.76104359 325.54528077 -101.33925711 316.76545264 -113.65283203 305.12109375 C-114.98206193 303.99124834 -116.3152571 302.86604736 -117.65283203 301.74609375 C-149.67368659 273.71979248 -168.99181381 229.33279947 -171.83935547 187.37255859 C-172.11181374 181.27151982 -171.96233767 175.21758375 -171.65283203 169.12109375 C-171.60884277 168.16348145 -171.56485352 167.20586914 -171.51953125 166.21923828 C-169.11686213 118.74527765 -147.8753198 75.39042902 -112.71533203 43.37109375 C-79.86003374 16.10818666 -42.60980029 1.94500837 0 0 Z " fill="#F1F0F2" transform="translate(252.65283203125,70.87890625)"/>
<path d="M0 0 C7.85670895 6.42134866 14.18314507 15.91645512 16 26 C17.26828146 41.67736806 14.32707832 53.81157476 4.33984375 66.03125 C-2.38716918 73.28306536 -10.29699233 77.43499876 -20 79 C-20 79.66 -20 80.32 -20 81 C-18.96875 81.020625 -17.9375 81.04125 -16.875 81.0625 C-5.13718856 82.56360555 5.48843903 90.49345135 12.92578125 99.2734375 C29.45798204 121.15116788 23.84515083 147.10767263 20.40808105 172.28771973 C19.93546098 175.77255397 19.47856645 179.25944931 19.01953125 182.74609375 C18.03775357 190.16755983 17.04153321 197.58664072 16 205 C15.84078064 206.18055969 15.68156128 207.36111938 15.51751709 208.57745361 C15.35559875 209.72059021 15.19368042 210.86372681 15.02685547 212.04150391 C14.88633759 213.05644928 14.7458197 214.07139465 14.6010437 215.11709595 C12.86798826 223.42969041 8.22331715 231.0271248 1.125 235.6875 C-5.03194348 239.51377864 -10.82558806 240.33152917 -17.9140625 240.40625 C-18.76495453 240.41765015 -19.61584656 240.42905029 -20.49252319 240.4407959 C-22.28939906 240.45962534 -24.0863429 240.47273574 -25.88330078 240.48046875 C-28.59664586 240.49979801 -31.30690153 240.56185823 -34.01953125 240.625 C-45.45595524 240.76537545 -54.67147712 239.83903076 -63.48095703 231.7109375 C-69.59609766 225.39927464 -72.21150094 218.9021963 -73.25854492 210.26733398 C-73.35651871 209.52802139 -73.45449249 208.7887088 -73.55543518 208.0269928 C-73.87406505 205.6012346 -74.1777094 203.17387979 -74.48046875 200.74609375 C-74.6997355 199.04077451 -74.91966168 197.33553993 -75.14021301 195.63038635 C-75.5997065 192.05965692 -76.05189423 188.48810019 -76.4987793 184.91577148 C-77.06737222 180.37441769 -77.65290016 175.83544834 -78.24392223 171.2969656 C-78.70090736 167.77411246 -79.14921119 164.25019469 -79.5949955 160.72590828 C-79.80737658 159.05413048 -80.02221982 157.3826633 -80.23973656 155.71154594 C-82.80322059 135.924041 -83.6965442 118.34241708 -72 101 C-62.43712681 89.5479834 -51.57969483 82.7734498 -37 80 C-37.59425781 79.86464844 -38.18851563 79.72929687 -38.80078125 79.58984375 C-50.63171915 76.51711182 -59.83957221 69.89781468 -67 60 C-69.00613823 56.43407704 -70.57912393 52.83278334 -72 49 C-72.433125 47.906875 -72.86625 46.81375 -73.3125 45.6875 C-75.82471915 32.21287 -73.77841525 19.96458125 -66.078125 8.640625 C-49.40301921 -12.54804325 -21.57428268 -16.41966767 0 0 Z " fill="#F1F1F2" transform="translate(285,201)"/>
<path d="M0 0 C1.14001465 0.00491455 2.2800293 0.0098291 3.45458984 0.01489258 C12.07494815 0.13446648 19.85974537 0.96853245 28.1875 3.3125 C30.06308594 3.78816406 30.06308594 3.78816406 31.9765625 4.2734375 C61.29549259 12.16265687 85.53301815 32.33740362 100.5625 58.3828125 C105.60930559 67.39040223 109.44987684 76.32822729 112.1875 86.3125 C112.50589844 87.40820312 112.82429687 88.50390625 113.15234375 89.6328125 C117.35478124 106.63622317 116.97148983 126.49074715 112.1875 143.3125 C111.87039063 144.56160156 111.55328125 145.81070313 111.2265625 147.09765625 C106.5370872 164.54042785 96.90864678 184.29118126 82.1875 195.3125 C81.85878906 193.60707031 81.85878906 193.60707031 81.5234375 191.8671875 C79.6799975 182.75795898 77.41692984 174.65866927 73.26171875 166.328125 C71.07045993 160.17666388 73.93095664 155.27800753 76.5625 149.6875 C79.58556937 143.02415766 81.82858934 136.53103341 83.1875 129.3125 C83.31769531 128.6215625 83.44789063 127.930625 83.58203125 127.21875 C83.88546727 125.24439296 84.06451738 123.30630915 84.1875 121.3125 C84.24035156 120.46816406 84.29320312 119.62382812 84.34765625 118.75390625 C85.04793337 96.31459144 76.9211245 75.1268272 62.1875 58.3125 C61.59453125 57.62414062 61.0015625 56.93578125 60.390625 56.2265625 C46.75015383 41.4785317 25.59812676 32.70231574 5.71875 31.41015625 C4.8834375 31.37792969 4.048125 31.34570312 3.1875 31.3125 C1.62515625 31.21775391 1.62515625 31.21775391 0.03125 31.12109375 C-21.78444613 30.35950976 -41.6978102 39.88397642 -58.1171875 53.75390625 C-72.2657443 67.18478263 -83.12754813 87.85350941 -83.9453125 107.50390625 C-83.93695978 111.10810434 -83.88502745 114.70903096 -83.8125 118.3125 C-83.81894531 119.323125 -83.82539063 120.33375 -83.83203125 121.375 C-83.51331431 133.03093397 -79.54474527 146.20488038 -73.5859375 156.2734375 C-71.8125 159.3125 -71.8125 159.3125 -71.75 162.0625 C-73.04307893 166.01780026 -74.77402444 169.68057814 -76.5390625 173.4453125 C-79.71079837 180.58658283 -81.18672263 187.55286064 -81.8125 195.3125 C-86.10819995 192.19328003 -89.04839852 188.75298141 -92.125 184.5 C-92.60211426 183.84128906 -93.07922852 183.18257812 -93.57080078 182.50390625 C-101.52020056 171.2900027 -107.18317958 159.6146505 -110.8125 146.3125 C-111.00859863 145.61737305 -111.20469727 144.92224609 -111.40673828 144.20605469 C-117.15674694 123.19007863 -116.70476139 100.64306918 -109.6875 80 C-109.38183105 79.09773682 -109.07616211 78.19547363 -108.76123047 77.26586914 C-98.75811786 48.73800496 -77.27109686 24.84044425 -50.22436523 11.37597656 C-34.2036191 3.78753602 -17.75351225 -0.09132193 0 0 Z " fill="#F1F0F2" transform="translate(255.8125,130.6875)"/>
<path d="M0 0 C0 9.9 0 19.8 0 30 C-4.186875 30.37125 -8.37375 30.7425 -12.6875 31.125 C-51.75136014 35.06891461 -87.59450536 53.60490995 -112.70410156 84.06738281 C-131.29799174 107.82936331 -142.84768631 136.73481984 -144 167 C-144.03254883 167.76521973 -144.06509766 168.53043945 -144.09863281 169.31884766 C-145.50229257 206.71432854 -132.50426117 244.11498879 -107.22119141 271.95898438 C-105.25709766 274.06240743 -103.26338611 276.13123511 -101.25 278.1875 C-100.57090576 278.88681641 -99.89181152 279.58613281 -99.19213867 280.30664062 C-95.99129583 283.48517926 -93.1047267 286.15149932 -89 288.078125 C-84.75545966 290.12311818 -81.4218463 291.80532249 -79 296 C-76.12866919 306.25755284 -72.57637662 322.77594036 -76 333 C-91.10821156 325.42418702 -104.68642508 316.64435889 -117 305 C-118.3292299 303.87015459 -119.66242507 302.74495361 -121 301.625 C-153.02085455 273.59869873 -172.33898178 229.21170572 -175.18652344 187.25146484 C-175.45898171 181.15042607 -175.30950563 175.09649 -175 169 C-174.95601074 168.0423877 -174.91202148 167.08477539 -174.86669922 166.09814453 C-172.4640301 118.6241839 -151.22248777 75.26933527 -116.0625 43.25 C-82.75795917 15.61431718 -43.52366288 0 0 0 Z " fill="#FEFDFE" transform="translate(256,71)"/>
<path d="M0 0 C0 82.5 0 165 0 250 C-25.33695652 250 -25.33695652 250 -34.39453125 241.84375 C-40.50250673 235.41661905 -43.19929119 229.00288884 -44.25854492 220.26733398 C-44.35651871 219.52802139 -44.45449249 218.7887088 -44.55543518 218.0269928 C-44.87406505 215.6012346 -45.1777094 213.17387979 -45.48046875 210.74609375 C-45.6997355 209.04077451 -45.91966168 207.33553993 -46.14021301 205.63038635 C-46.5997065 202.05965692 -47.05189423 198.48810019 -47.4987793 194.91577148 C-48.06737222 190.37441769 -48.65290016 185.83544834 -49.24392223 181.2969656 C-49.70090736 177.77411246 -50.14921119 174.25019469 -50.5949955 170.72590828 C-50.80737658 169.05413048 -51.02221982 167.3826633 -51.23973656 165.71154594 C-53.80322059 145.924041 -54.6965442 128.34241708 -43 111 C-33.43712681 99.5479834 -22.57969483 92.7734498 -8 90 C-8.59425781 89.86464844 -9.18851563 89.72929687 -9.80078125 89.58984375 C-21.63171915 86.51711182 -30.83957221 79.89781468 -38 70 C-40.00613823 66.43407704 -41.57912393 62.83278334 -43 59 C-43.433125 57.906875 -43.86625 56.81375 -44.3125 55.6875 C-46.82471915 42.21287 -44.77841525 29.96458125 -37.078125 18.640625 C-27.49530283 6.46395622 -15.45384728 0 0 0 Z " fill="#FEFEFE" transform="translate(256,191)"/>
<path d="M0 0 C0 9.9 0 19.8 0 30 C-2.475 30.226875 -4.95 30.45375 -7.5 30.6875 C-29.66640125 33.15876143 -50.53022604 43.19540451 -64.98046875 60.52050781 C-78.30226318 77.35720647 -84.42960181 96.6555732 -84 118 C-84.00644531 119.010625 -84.01289063 120.02125 -84.01953125 121.0625 C-83.70081431 132.71843397 -79.73224527 145.89238038 -73.7734375 155.9609375 C-72 159 -72 159 -71.9375 161.75 C-73.23057893 165.70530026 -74.96152444 169.36807814 -76.7265625 173.1328125 C-79.89829837 180.27408283 -81.37422263 187.24036064 -82 195 C-86.29569995 191.88078003 -89.23589852 188.44048141 -92.3125 184.1875 C-92.78961426 183.52878906 -93.26672852 182.87007812 -93.75830078 182.19140625 C-101.70770056 170.9775027 -107.37067958 159.3021505 -111 146 C-111.19609863 145.30487305 -111.39219727 144.60974609 -111.59423828 143.89355469 C-117.34424694 122.87757863 -116.89226139 100.33056918 -109.875 79.6875 C-109.56933105 78.78523682 -109.26366211 77.88297363 -108.94873047 76.95336914 C-98.94561786 48.42550496 -77.45859686 24.52794425 -50.41186523 11.06347656 C-34.05052959 3.31371124 -18.21681743 0 0 0 Z " fill="#FEFDFE" transform="translate(256,131)"/>
</svg>
